<svg width="100" height="135" viewBox="0 0 100 135" fill="none" xmlns="http://www.w3.org/2000/svg">
<g filter="url(#filter0_d_28_53)">
<path d="M18.46 125.52C18.0867 125.587 17.68 125.667 17.24 125.76C16.8 125.853 16.4133 125.94 16.08 126.02C16.24 125.447 16.3933 124.807 16.54 124.1C16.7 123.38 16.8533 122.627 17 121.84C17.16 121.053 17.3067 120.26 17.44 119.46C17.5867 118.647 17.7267 117.867 17.86 117.12C18.14 115.347 18.42 113.513 18.7 111.62L25.4 111.28L24.82 113.74H21.68L21.06 117.3C21.4733 117.287 21.8667 117.28 22.24 117.28C22.5467 117.28 22.86 117.28 23.18 117.28C23.5 117.28 23.7467 117.273 23.92 117.26C23.88 117.633 23.8267 118 23.76 118.36C23.7067 118.72 23.6533 119.08 23.6 119.44C23.4267 119.44 23.18 119.44 22.86 119.44C22.54 119.427 22.2067 119.413 21.86 119.4C21.5267 119.387 21.1467 119.373 20.72 119.36L19.8 125.26C19.3467 125.34 18.9 125.427 18.46 125.52ZM26.2164 125.6C26.0964 125.6 25.8564 125.62 25.4964 125.66C25.1497 125.687 24.7897 125.727 24.4164 125.78C24.0431 125.82 23.7031 125.86 23.3964 125.9C23.1031 125.94 22.9431 125.967 22.9164 125.98C23.0497 125.407 23.1831 124.773 23.3164 124.08C23.4631 123.373 23.6097 122.64 23.7564 121.88C23.9031 121.107 24.0431 120.327 24.1764 119.54C24.3097 118.753 24.4364 117.993 24.5564 117.26C24.8364 115.553 25.1164 113.8 25.3964 112L28.5164 111.5C28.2097 113.287 27.9097 115.04 27.6164 116.76C27.4964 117.493 27.3697 118.253 27.2364 119.04C27.1164 119.827 26.9897 120.607 26.8564 121.38C26.7364 122.153 26.6231 122.907 26.5164 123.64C26.4097 124.36 26.3097 125.013 26.2164 125.6ZM26.9594 126.1C27.3594 124.18 27.7394 122.32 28.0994 120.52C28.2327 119.747 28.3727 118.947 28.5194 118.12C28.6794 117.293 28.826 116.48 28.9594 115.68C29.0927 114.867 29.2127 114.093 29.3194 113.36C29.426 112.613 29.506 111.94 29.5594 111.34C29.7327 111.353 29.8794 111.36 29.9994 111.36C30.1194 111.36 30.2594 111.36 30.4194 111.36C30.606 111.36 30.8327 111.36 31.0994 111.36C31.366 111.347 31.6327 111.333 31.8994 111.32C32.166 111.307 32.4527 111.293 32.7594 111.28C32.946 112.213 33.1127 113.113 33.2594 113.98C33.406 114.74 33.5527 115.52 33.6994 116.32C33.8594 117.12 33.9994 117.8 34.1194 118.36C34.1727 118.093 34.2327 117.787 34.2994 117.44C34.366 117.08 34.4394 116.707 34.5194 116.32C34.5994 115.933 34.6727 115.547 34.7394 115.16C34.8194 114.76 34.8994 114.367 34.9794 113.98C35.166 113.113 35.3594 112.22 35.5594 111.3L37.9994 111C37.546 113.04 37.146 114.973 36.7994 116.8C36.6394 117.587 36.4794 118.387 36.3194 119.2C36.1727 120 36.0327 120.773 35.8994 121.52C35.766 122.253 35.6527 122.94 35.5594 123.58C35.466 124.207 35.3927 124.733 35.3394 125.16C35.2994 125.16 35.1394 125.193 34.8594 125.26C34.5927 125.313 34.2794 125.38 33.9194 125.46C33.5727 125.54 33.2194 125.62 32.8594 125.7C32.5127 125.78 32.2527 125.853 32.0794 125.92C31.9994 124.853 31.9127 123.84 31.8194 122.88C31.7794 122.467 31.7327 122.047 31.6794 121.62C31.6394 121.18 31.5927 120.76 31.5394 120.36C31.486 119.96 31.4327 119.587 31.3794 119.24C31.326 118.893 31.2727 118.593 31.2194 118.34C31.1794 118.593 31.126 118.887 31.0594 119.22C30.9927 119.553 30.926 119.907 30.8594 120.28C30.7927 120.653 30.726 121.047 30.6594 121.46C30.5927 121.86 30.5194 122.247 30.4394 122.62C30.266 123.513 30.0794 124.447 29.8794 125.42L26.9594 126.1ZM36.0623 126.02L38.6823 111.8L45.0023 111.26C44.909 111.553 44.829 111.853 44.7623 112.16C44.6957 112.413 44.629 112.68 44.5623 112.96C44.509 113.227 44.4623 113.467 44.4223 113.68C44.289 113.693 44.0957 113.707 43.8423 113.72C43.6023 113.72 43.3423 113.727 43.0623 113.74C42.7823 113.74 42.4957 113.74 42.2023 113.74C41.9223 113.74 41.6757 113.74 41.4623 113.74L40.7623 117.32C41.1757 117.293 41.5623 117.273 41.9223 117.26C42.2157 117.247 42.5157 117.24 42.8223 117.24C43.129 117.24 43.3557 117.233 43.5023 117.22C43.449 117.593 43.3957 117.96 43.3423 118.32C43.3023 118.68 43.249 119.047 43.1823 119.42C43.049 119.433 42.829 119.447 42.5223 119.46C42.229 119.46 41.929 119.467 41.6223 119.48C41.2757 119.493 40.8957 119.507 40.4823 119.52L39.8023 123.2L42.7223 122.74L42.5223 125.02L36.0623 126.02ZM50.0788 125.6C49.7454 125.653 49.3788 125.713 48.9788 125.78C48.5788 125.847 48.2188 125.907 47.8988 125.96C47.9521 125.52 48.0054 125.087 48.0588 124.66C48.0988 124.287 48.1321 123.913 48.1588 123.54C48.1988 123.167 48.2321 122.847 48.2588 122.58H46.5188L45.7188 125.46C45.4254 125.5 45.0788 125.547 44.6788 125.6C44.2788 125.64 43.9054 125.68 43.5588 125.72C43.1321 125.773 42.7121 125.827 42.2987 125.88C42.8321 124.107 43.3588 122.36 43.8788 120.64C44.0921 119.92 44.3121 119.167 44.5388 118.38C44.7788 117.593 45.0121 116.813 45.2388 116.04C45.4788 115.253 45.7054 114.5 45.9188 113.78C46.1321 113.06 46.3188 112.4 46.4788 111.8C47.3854 111.733 48.3054 111.653 49.2388 111.56C50.1854 111.467 51.1054 111.34 51.9988 111.18C51.9588 111.607 51.9121 112.14 51.8588 112.78C51.8188 113.407 51.7788 114.093 51.7388 114.84C51.6988 115.587 51.6588 116.367 51.6188 117.18C51.5788 117.993 51.5388 118.793 51.4988 119.58C51.4321 121.42 51.3588 123.373 51.2788 125.44C50.8788 125.507 50.4788 125.56 50.0788 125.6ZM46.9988 120.58C47.0521 120.58 47.1454 120.58 47.2788 120.58C47.4254 120.567 47.5721 120.56 47.7188 120.56C47.8788 120.547 48.0254 120.54 48.1588 120.54C48.2921 120.527 48.3854 120.513 48.4388 120.5C48.4388 120.42 48.4454 120.287 48.4588 120.1C48.4854 119.9 48.5054 119.68 48.5188 119.44C48.5454 119.187 48.5721 118.913 48.5987 118.62C48.6254 118.327 48.6521 118.04 48.6788 117.76C48.7321 117.08 48.7988 116.347 48.8788 115.56L48.9988 113.82L48.6988 113.84L48.2388 115.56L46.9988 120.58ZM51.3111 126.02C51.7111 124.22 52.0911 122.46 52.4511 120.74C52.5978 120.02 52.7511 119.26 52.9111 118.46C53.0711 117.66 53.2244 116.873 53.3711 116.1C53.5178 115.327 53.6578 114.58 53.7911 113.86C53.9244 113.14 54.0378 112.48 54.1311 111.88C54.5178 111.76 54.8978 111.66 55.2711 111.58C55.6444 111.487 56.0244 111.407 56.4111 111.34C56.8111 111.273 57.1844 111.24 57.5311 111.24C58.1311 111.24 58.6311 111.34 59.0311 111.54C59.4444 111.74 59.7778 112.013 60.0311 112.36C60.2844 112.693 60.4644 113.087 60.5711 113.54C60.6778 113.993 60.7311 114.48 60.7311 115C60.7311 115.747 60.5911 116.467 60.3111 117.16C60.0444 117.853 59.6778 118.473 59.2111 119.02C58.7578 119.553 58.2311 119.98 57.6311 120.3C57.0444 120.62 56.4311 120.78 55.7911 120.78H55.5711C55.4644 121.233 55.3644 121.727 55.2711 122.26C55.1778 122.793 55.0978 123.287 55.0311 123.74C54.9378 124.273 54.8511 124.807 54.7711 125.34L51.3111 126.02ZM56.8911 113.66C56.7444 114.54 56.5978 115.373 56.4511 116.16C56.3044 116.947 56.1444 117.787 55.9711 118.68C56.1844 118.627 56.4044 118.507 56.6311 118.32C56.8711 118.12 57.0911 117.867 57.2911 117.56C57.4911 117.24 57.6511 116.873 57.7711 116.46C57.8911 116.047 57.9511 115.613 57.9511 115.16C57.9511 114.667 57.8378 114.293 57.6111 114.04C57.3978 113.787 57.1578 113.66 56.8911 113.66ZM58.8892 126.02C59.2892 124.22 59.6692 122.46 60.0292 120.74C60.1759 120.02 60.3292 119.26 60.4892 118.46C60.6492 117.66 60.8026 116.873 60.9492 116.1C61.0959 115.327 61.2359 114.58 61.3692 113.86C61.5026 113.14 61.6159 112.48 61.7092 111.88C62.0959 111.76 62.4759 111.66 62.8492 111.58C63.2226 111.487 63.6026 111.407 63.9892 111.34C64.3892 111.273 64.7626 111.24 65.1092 111.24C65.7092 111.24 66.2092 111.34 66.6092 111.54C67.0226 111.74 67.3559 112.013 67.6092 112.36C67.8626 112.693 68.0426 113.087 68.1492 113.54C68.2559 113.993 68.3092 114.48 68.3092 115C68.3092 115.747 68.1692 116.467 67.8892 117.16C67.6226 117.853 67.2559 118.473 66.7892 119.02C66.3359 119.553 65.8092 119.98 65.2092 120.3C64.6226 120.62 64.0092 120.78 63.3692 120.78H63.1492C63.0426 121.233 62.9426 121.727 62.8492 122.26C62.7559 122.793 62.6759 123.287 62.6092 123.74C62.5159 124.273 62.4292 124.807 62.3492 125.34L58.8892 126.02ZM64.4692 113.66C64.3226 114.54 64.1759 115.373 64.0292 116.16C63.8826 116.947 63.7226 117.787 63.5492 118.68C63.7626 118.627 63.9826 118.507 64.2092 118.32C64.4492 118.12 64.6692 117.867 64.8692 117.56C65.0692 117.24 65.2292 116.873 65.3492 116.46C65.4692 116.047 65.5292 115.613 65.5292 115.16C65.5292 114.667 65.4159 114.293 65.1892 114.04C64.9759 113.787 64.7359 113.66 64.4692 113.66ZM72.0473 125.36C71.634 125.36 71.194 125.373 70.7273 125.4C70.274 125.427 69.814 125.467 69.3473 125.52C68.8807 125.573 68.4207 125.647 67.9673 125.74C67.5273 125.82 67.1273 125.92 66.7673 126.04C66.8473 125.44 66.9407 124.773 67.0473 124.04C67.154 123.307 67.274 122.547 67.4073 121.76C67.554 120.973 67.694 120.18 67.8273 119.38C67.974 118.58 68.1207 117.813 68.2673 117.08C68.6007 115.333 68.954 113.553 69.3273 111.74L72.8273 111.28C72.4673 112.827 72.1207 114.333 71.7873 115.8C71.6407 116.427 71.494 117.08 71.3473 117.76C71.2007 118.427 71.0607 119.08 70.9273 119.72C70.794 120.36 70.674 120.98 70.5673 121.58C70.4607 122.18 70.374 122.713 70.3073 123.18C70.6407 123.153 70.994 123.14 71.3673 123.14C71.754 123.127 72.094 123.12 72.3873 123.12C72.4007 123.373 72.4207 123.627 72.4473 123.88C72.474 124.12 72.5007 124.34 72.5273 124.54C72.5673 124.74 72.594 124.92 72.6073 125.08C72.634 125.227 72.654 125.327 72.6673 125.38C72.5607 125.38 72.454 125.38 72.3473 125.38C72.254 125.367 72.154 125.36 72.0473 125.36ZM72.7225 126.02L75.3425 111.8L81.6625 111.26C81.5692 111.553 81.4892 111.853 81.4225 112.16C81.3558 112.413 81.2892 112.68 81.2225 112.96C81.1692 113.227 81.1225 113.467 81.0825 113.68C80.9492 113.693 80.7558 113.707 80.5025 113.72C80.2625 113.72 80.0025 113.727 79.7225 113.74C79.4425 113.74 79.1558 113.74 78.8625 113.74C78.5825 113.74 78.3358 113.74 78.1225 113.74L77.4225 117.32C77.8358 117.293 78.2225 117.273 78.5825 117.26C78.8758 117.247 79.1758 117.24 79.4825 117.24C79.7892 117.24 80.0158 117.233 80.1625 117.22C80.1092 117.593 80.0558 117.96 80.0025 118.32C79.9625 118.68 79.9092 119.047 79.8425 119.42C79.7092 119.433 79.4892 119.447 79.1825 119.46C78.8892 119.46 78.5892 119.467 78.2825 119.48C77.9358 119.493 77.5558 119.507 77.1425 119.52L76.4625 123.2L79.3825 122.74L79.1825 125.02L72.7225 126.02Z" fill="black"/>
</g>
<path d="M84.1963 35.7064C75.1138 26.3967 64.3939 24.3334 54.0107 29.8965C53.0609 30.4055 52.3246 30.7873 51.6953 31.0426C51.9969 30.5484 52.1738 29.9697 52.1738 29.3484C52.1738 25.6189 52.1738 24.5279 52.1738 24.2531C52.1738 24.1959 52.1738 24.1732 52.1738 24.1705C52.1738 24.0277 52.1738 23.6652 52.1738 22.8264C52.1738 17.432 56.5625 13.0436 61.9566 13.0436C63.7576 13.0436 65.2176 11.5836 65.2176 9.78262C65.2176 7.98164 63.7576 6.52168 61.9566 6.52168C57.0023 6.52168 52.5603 8.74551 49.5676 12.2441C45.7459 4.97207 38.1166 0 29.3469 0H22.825C21.024 0 19.564 1.45996 19.564 3.26094V9.78281C19.564 17.0777 23.0041 23.584 28.3469 27.7658C23.9072 29.0715 19.699 31.7383 15.8279 35.7064C7.48377 44.2588 6.09392 55.9018 8.9783 67.5479C11.831 79.066 18.1748 88.4734 22.7404 93.0293C28.8025 99.0785 36.3859 102.245 43.8121 98.1643C45.7045 97.124 48.2728 95.5664 50.0121 95.4848C51.751 95.5662 54.3238 97.1256 56.2121 98.1643C62.8351 101.804 70.3185 99.9797 77.2838 93.0293C83.4504 86.876 88.8933 76.707 91.1506 67.1227C93.8685 55.5797 92.3707 44.0856 84.1963 35.7064ZM26.0859 9.78281V6.52188H29.3469C38.3373 6.52188 45.6515 13.8361 45.6515 22.8266C45.6515 24.6914 45.6515 25.2369 45.6515 25.3742C45.6515 25.4029 45.6515 25.4141 45.6515 25.4154C45.6515 25.4867 45.6515 25.6682 45.6515 26.0875H42.3906C33.4002 26.0875 26.0859 18.7732 26.0859 9.78281ZM84.8015 65.6277C82.5291 75.2772 77.0742 84.0242 72.6763 88.4129C67.8062 93.2727 63.3238 94.6307 59.3521 92.4484C56.8597 91.0787 53.5679 89.0412 50.0859 88.9623C50.0361 88.9609 49.9875 88.9609 49.9377 88.9623C46.4504 89.0414 43.1543 91.0852 40.6715 92.4484C36.6996 94.6307 32.2172 93.2727 27.3474 88.4129C23.0615 84.1363 17.6769 75.541 15.3092 65.9803C13.4709 58.557 12.8785 48.0693 20.4965 40.2609C26.9689 33.6262 34.6931 31.2305 42.9334 35.6457C48.623 38.6939 51.4019 38.6938 57.0906 35.6457C64.9058 31.4584 72.4547 33.0113 79.5277 40.2609C87.0162 47.9373 86.5291 58.2922 84.8015 65.6277Z" fill="#03CF5B"/>
<defs>
<filter id="filter0_d_28_53" x="12.08" y="111" width="73.5825" height="23.1" filterUnits="userSpaceOnUse" color-interpolation-filters="sRGB">
<feFlood flood-opacity="0" result="BackgroundImageFix"/>
<feColorMatrix in="SourceAlpha" type="matrix" values="0 0 0 0 0 0 0 0 0 0 0 0 0 0 0 0 0 0 127 0" result="hardAlpha"/>
<feOffset dy="4"/>
<feGaussianBlur stdDeviation="2"/>
<feComposite in2="hardAlpha" operator="out"/>
<feColorMatrix type="matrix" values="0 0 0 0 0 0 0 0 0 0 0 0 0 0 0 0 0 0 0.25 0"/>
<feBlend mode="normal" in2="BackgroundImageFix" result="effect1_dropShadow_28_53"/>
<feBlend mode="normal" in="SourceGraphic" in2="effect1_dropShadow_28_53" result="shape"/>
</filter>
</defs>
</svg>
